<svg xmlns="http://www.w3.org/2000/svg" viewBox="0 0 120 44" fill="none">
  <rect width="120" height="44" rx="3" fill="#005891"/>
  <path d="M14 10h8c3.5 0 6 1.5 6 4.5 0 2-1 3.2-2.8 3.8v.1c2.2.5 3.5 2 3.5 4.2 0 3.5-2.8 5.4-6.8 5.4H14V10zm7.5 7c2 0 3.2-.8 3.2-2.3 0-1.5-1.1-2.2-3.2-2.2h-3.8v4.5h3.8zm.5 7.5c2.3 0 3.6-1 3.6-2.7 0-1.7-1.3-2.5-3.6-2.5h-4.2v5.2h4.2z" fill="white"/>
  <path d="M34 10h8c3.5 0 6 1.5 6 4.5 0 2-1 3.2-2.8 3.8v.1c2.2.5 3.5 2 3.5 4.2 0 3.5-2.8 5.4-6.8 5.4H34V10zm7.5 7c2 0 3.2-.8 3.2-2.3 0-1.5-1.1-2.2-3.2-2.2h-3.8v4.5h3.8zm.5 7.5c2.3 0 3.6-1 3.6-2.7 0-1.7-1.3-2.5-3.6-2.5h-4.2v5.2h4.2z" fill="white"/>
  <path d="M54 10h8c3.5 0 6 1.5 6 4.5 0 2-1 3.2-2.8 3.8v.1c2.2.5 3.5 2 3.5 4.2 0 3.5-2.8 5.4-6.8 5.4H54V10zm7.5 7c2 0 3.2-.8 3.2-2.3 0-1.5-1.1-2.2-3.2-2.2h-3.8v4.5h3.8zm.5 7.5c2.3 0 3.6-1 3.6-2.7 0-1.7-1.3-2.5-3.6-2.5h-4.2v5.2h4.2z" fill="white"/>
  <rect x="76" y="8" width="38" height="28" rx="2" fill="white"/>
  <text x="95" y="27" text-anchor="middle" font-family="Arial,Helvetica,sans-serif" font-weight="bold" font-size="18" fill="#005891">A+</text>
</svg>
